<svg width="39" height="20" viewBox="0 0 39 20" fill="none" xmlns="http://www.w3.org/2000/svg">
<g clip-path="url(#clip0)">
<path fill-rule="evenodd" clip-rule="evenodd" d="M0 6.56867L9.52126 9.49221C9.65986 6.7686 10.9101 4.33571 12.8313 2.62875L0 6.56867ZM29.4786 9.49221L39 6.56867L26.1686 2.62875C28.0898 4.33571 29.3401 6.7686 29.4786 9.49221Z" fill="black"/>
<path fill-rule="evenodd" clip-rule="evenodd" d="M8.59033 10.0854L9.51168 10.2542C9.62147 14.5387 12.4803 18.1461 16.4059 19.4113L8.59033 17.9754V10.0854ZM29.4869 10.29L30.5938 10.0854V17.9754L22.2771 19.508C26.3539 18.3418 29.3589 14.6732 29.4869 10.29ZM20.3852 19.8567L19.6087 19.9999L18.9658 19.8817C19.1427 19.8909 19.3207 19.8959 19.5 19.8959C19.7983 19.8959 20.0935 19.8822 20.3852 19.8567Z" fill="black"/>
<path d="M19.5002 0C22.2875 0 24.811 1.1192 26.6375 2.9285C28.4641 4.7379 29.5938 7.2375 29.5938 9.99859C29.5938 12.7596 28.4641 15.2593 26.6375 17.0686C24.811 18.878 22.2875 19.9971 19.5002 19.9971C16.713 19.9971 14.1895 18.878 12.3629 17.0686C10.5363 15.2593 9.40649 12.7596 9.40649 9.99859C9.40649 7.2375 10.5363 4.7379 12.3629 2.9285C14.1895 1.1192 16.713 0 19.5002 0ZM26.4931 3.07153C24.7034 1.29884 22.2311 0.202263 19.5002 0.202263C16.7693 0.202263 14.2969 1.29884 12.5072 3.07153C10.7177 4.84432 9.61078 7.29343 9.61078 9.99859C9.61078 12.7038 10.7177 15.1528 12.5072 16.9256C14.2969 18.6983 16.7693 19.7948 19.5002 19.7948C22.2311 19.7948 24.7034 18.6983 26.4931 16.9256C28.2828 15.1528 29.3897 12.7038 29.3897 9.99859C29.3897 7.29343 28.2828 4.84432 26.4931 3.07153Z" fill="black"/>
<path d="M19.4998 1.07864C21.9864 1.07864 24.2376 2.07714 25.8672 3.69127C27.4968 5.30549 28.5047 7.53554 28.5047 9.99872C28.5047 12.4619 27.4968 14.692 25.8672 16.3061C24.2376 17.9203 21.9864 18.9188 19.4998 18.9188C17.0132 18.9188 14.7619 17.9203 13.1324 16.3061C11.5029 14.692 10.4949 12.4619 10.4949 9.99872C10.4949 7.53554 11.5029 5.30549 13.1324 3.69127C14.7619 2.07714 17.0132 1.07864 19.4998 1.07864ZM25.6071 3.94898C24.0441 2.40078 21.8848 1.44316 19.4998 1.44316C17.1148 1.44316 14.9554 2.40078 13.3925 3.94898C11.8296 5.49717 10.8629 7.63614 10.8629 9.99872C10.8629 12.3613 11.8296 14.5003 13.3925 16.0485C14.9554 17.5967 17.1148 18.5543 19.4998 18.5543C21.8848 18.5543 24.0441 17.5967 25.6071 16.0485C27.1701 14.5003 28.1368 12.3613 28.1368 9.99872C28.1368 7.63614 27.1701 5.49717 25.6071 3.94898Z" fill="black"/>
<path fill-rule="evenodd" clip-rule="evenodd" d="M19.4997 2.41391C23.7285 2.41391 27.1566 5.80966 27.1566 9.99864C27.1566 14.1875 23.7285 17.5834 19.4997 17.5834C15.2708 17.5834 11.8428 14.1875 11.8428 9.99864C11.8428 5.80966 15.2708 2.41391 19.4997 2.41391ZM13.732 7.60236C14.6361 7.31795 15.5358 7.10491 16.4313 6.95925C16.5783 6.07213 16.7935 5.18093 17.0806 4.28526C15.5727 4.91263 14.3653 6.10854 13.732 7.60236ZM21.9188 4.28526C22.2083 5.18889 22.4249 6.08805 22.572 6.98295C23.4762 7.13336 24.3766 7.34601 25.2734 7.61712C24.6418 6.1166 23.4317 4.91467 21.9188 4.28526ZM25.75 10.1738C24.7789 10.6625 23.7827 11.0436 22.7583 11.3013C22.8239 10.4376 22.8292 9.57023 22.7705 8.69913C23.7908 8.95683 24.7828 9.3366 25.75 9.82347C25.7517 9.88163 25.7527 9.94009 25.7527 9.99864C25.7527 10.0572 25.7517 10.1156 25.75 10.1738ZM25.2735 12.3801C24.3685 12.6536 23.4601 12.8677 22.5478 13.0182C22.3959 13.9219 22.1798 14.8217 21.9038 15.7179C23.4237 15.0903 24.6399 13.8856 25.2735 12.3801ZM17.0956 15.7179C16.8219 14.8296 16.6072 13.9377 16.4555 13.042C15.552 12.8963 14.6443 12.6818 13.732 12.3949C14.3673 13.8935 15.5806 15.0924 17.0956 15.7179ZM19.3368 3.80664C18.857 4.81563 18.4959 5.79772 18.2438 6.75505C19.0855 6.70193 19.9236 6.70698 20.7584 6.76689C20.5062 5.80588 20.1442 4.81981 19.6626 3.80664C19.6085 3.80528 19.5541 3.8046 19.4997 3.8046C19.4452 3.8046 19.3909 3.80528 19.3368 3.80664ZM21.1198 11.6032C20.0696 11.7266 18.9894 11.7201 17.8756 11.5685C17.7565 10.55 17.763 9.50303 17.9098 8.42413C18.9991 8.27867 20.0562 8.27217 21.0846 8.39015C21.2376 9.49323 21.2442 10.5631 21.1198 11.6032ZM20.8146 13.2263C19.9428 13.2915 19.0673 13.2968 18.188 13.2386C18.4482 14.2493 18.8313 15.232 19.3228 16.1901C19.3816 16.1917 19.4405 16.1927 19.4997 16.1927C19.5588 16.1927 19.6177 16.1917 19.6765 16.1901C20.17 15.228 20.5543 14.2412 20.8146 13.2263ZM16.225 8.75486C15.2587 9.00441 14.2673 9.36214 13.2488 9.83716C13.2474 9.89086 13.2467 9.94465 13.2467 9.99864C13.2467 10.0526 13.2474 10.1064 13.2488 10.16C14.2716 10.6371 15.2669 10.9957 16.2371 11.2455C16.1766 10.4187 16.1715 9.58858 16.225 8.75486Z" fill="black"/>
<path fill-rule="evenodd" clip-rule="evenodd" d="M19.6507 0.203655L19.6247 2.41554C19.5832 2.41486 19.5417 2.41399 19.5001 2.41399C19.4593 2.41399 19.4188 2.41486 19.3783 2.41544L19.3576 0.203461C19.405 0.202878 19.4525 0.202393 19.5001 0.202393C19.5504 0.202393 19.6006 0.202975 19.6507 0.203655ZM17.7793 0.350376L18.1671 2.52876C18.0864 2.54274 18.0062 2.55809 17.9264 2.57459L17.4928 0.404365C17.5878 0.385041 17.6834 0.36698 17.7793 0.350376ZM16.6021 19.3674L17.3503 17.2799C17.4286 17.3025 17.5071 17.3244 17.5864 17.3447L16.8822 19.4479C16.7883 19.4224 16.695 19.3956 16.6021 19.3674ZM14.8612 18.6525L15.9921 16.7421C16.0645 16.7791 16.1375 16.815 16.2112 16.8498L15.1203 18.7842C15.0332 18.7415 14.9469 18.6975 14.8612 18.6525ZM13.3093 17.6385L14.7841 15.9743C14.8484 16.0241 14.9135 16.0726 14.9794 16.1204L13.5391 17.8158C13.4616 17.7578 13.3849 17.6987 13.3093 17.6385ZM12.0011 16.3852L13.7264 14.9803C13.78 15.0412 13.8348 15.101 13.8902 15.1601L12.1941 16.601C12.1287 16.53 12.0643 16.458 12.0011 16.3852ZM10.9077 14.852L12.8792 13.8103C12.9206 13.8806 12.9631 13.95 13.0066 14.0188L11.0567 15.1016C11.0058 15.0192 10.9561 14.936 10.9077 14.852ZM10.1292 13.1377L12.2625 12.4793C12.2893 12.556 12.3174 12.6321 12.3466 12.7078L10.227 13.4104C10.1931 13.3202 10.1605 13.2293 10.1292 13.1377ZM9.69974 11.3186L11.9186 11.0631C11.93 11.1437 11.9426 11.2241 11.9565 11.304L9.74307 11.6057C9.72719 11.5104 9.71288 11.4148 9.69974 11.3186ZM9.62279 9.50845L11.8531 9.61022C11.8489 9.69091 11.8465 9.77218 11.845 9.85355L9.61279 9.79801C9.61485 9.7012 9.61809 9.60458 9.62279 9.50845ZM9.85982 7.9085L9.92971 7.62642L12.0671 8.17243C12.0474 8.25147 12.0289 8.33099 12.0117 8.41101L9.85982 7.9085ZM10.5498 5.82664L12.5621 6.78698C12.5273 6.86058 12.4936 6.93467 12.4611 7.00944L10.4289 6.09085C10.4679 6.0021 10.5083 5.91403 10.5498 5.82664ZM11.527 4.20212L13.3028 5.54417C13.2547 5.60981 13.2072 5.67613 13.1611 5.74332L11.3572 4.43808C11.4126 4.35855 11.4693 4.28 11.527 4.20212ZM12.753 2.83658L14.2717 4.45818C14.2118 4.51362 14.1525 4.56985 14.0943 4.62723L12.542 3.03758C12.6113 2.96961 12.6816 2.90251 12.753 2.83658ZM14.2707 1.68242L15.4579 3.55639C15.3884 3.59931 15.3196 3.6431 15.2516 3.68806L14.0255 1.83934C14.1064 1.78593 14.1882 1.7335 14.2707 1.68242ZM15.6991 0.955904L15.9716 0.848606L16.7712 2.91037C16.6944 2.9395 16.6178 2.96951 16.5421 3.00087L15.6991 0.955904ZM21.4607 0.39514L21.1267 2.58605C21.0466 2.56887 20.9662 2.55265 20.8852 2.53808L21.1725 0.342122C21.2691 0.358435 21.3651 0.376108 21.4607 0.39514ZM23.263 0.936678L22.4553 2.9998C22.3799 2.96854 22.3038 2.93873 22.2272 2.90979L22.9911 0.830351C23.0823 0.864531 23.173 0.899973 23.263 0.936678ZM24.9149 1.80011L23.7385 3.68156C23.6705 3.6367 23.6018 3.593 23.5324 3.55028L24.6686 1.64533C24.7515 1.69582 24.8337 1.74738 24.9149 1.80011ZM26.376 2.95795L24.8501 4.57334C24.7914 4.51654 24.7318 4.46041 24.6713 4.40545L26.1625 2.75909C26.2347 2.82434 26.3058 2.89076 26.376 2.95795ZM27.5664 4.32981L25.7756 5.65273C25.7287 5.5865 25.6812 5.52067 25.6322 5.456L27.3938 4.09677C27.4524 4.17357 27.51 4.25125 27.5664 4.32981ZM28.504 5.94131L26.4843 6.88563C26.4507 6.81174 26.4156 6.73872 26.3797 6.66608L28.379 5.68001C28.4219 5.76643 28.4636 5.85353 28.504 5.94131ZM29.1003 7.63817L26.9428 8.21224C26.9236 8.13349 26.9032 8.05522 26.8815 7.97745L29.0261 7.35881C29.0522 7.45144 29.077 7.54457 29.1003 7.63817ZM29.3761 9.48554L27.1449 9.57604C27.1404 9.49505 27.1344 9.41456 27.1274 9.33425L29.3568 9.19753C29.3645 9.29318 29.3711 9.38921 29.3761 9.48554ZM29.2064 11.8838L27.0092 11.4869C27.025 11.408 27.0394 11.3285 27.0529 11.2487L29.258 11.5999C29.2422 11.695 29.2249 11.7897 29.2064 11.8838ZM28.6808 13.6469L26.6234 12.7855C26.6533 12.7108 26.6817 12.6352 26.7092 12.5592L28.7853 13.3781C28.7518 13.4684 28.7169 13.5579 28.6808 13.6469ZM27.8484 15.2524L25.9842 14.0336C26.0277 13.9652 26.0701 13.8961 26.1113 13.8263L28.0013 15.0066C27.9515 15.0893 27.9005 15.1712 27.8484 15.2524ZM26.7445 16.6672L25.1462 15.1216C25.2014 15.0619 25.2556 15.0014 25.3088 14.94L26.9399 16.4526C26.8758 16.525 26.8108 16.5966 26.7445 16.6672ZM25.3594 17.891L24.0723 16.0831C24.1377 16.0348 24.2021 15.9853 24.2658 15.935L25.5914 17.7165C25.5149 17.7757 25.4376 17.8339 25.3594 17.891ZM23.8423 18.8024L22.8717 16.8099C22.945 16.7742 23.0176 16.7373 23.0897 16.6994L24.1025 18.6716C24.0165 18.7164 23.9298 18.7599 23.8423 18.8024ZM22.1104 19.4499L21.5747 17.3015C21.6537 17.2794 21.7321 17.2562 21.8101 17.2318L22.3912 19.3695C22.2982 19.3976 22.2046 19.4245 22.1104 19.4499ZM20.2267 19.7687L20.1033 17.5601C20.1851 17.5537 20.2663 17.5458 20.3473 17.5369L20.5175 19.7437C20.421 19.7534 20.3241 19.7617 20.2267 19.7687ZM18.5116 19.7465L18.6983 17.5422C18.7789 17.5504 18.8599 17.5573 18.9412 17.5632L18.8011 19.7707C18.7042 19.764 18.6077 19.7559 18.5116 19.7465Z" fill="black"/>
</g>
<defs>
<clipPath id="clip0">
<rect width="39" height="20" fill="white"/>
</clipPath>
</defs>
</svg>
